<svg width="442" height="103" viewBox="0 0 442 103" fill="none" xmlns="http://www.w3.org/2000/svg">
<path d="M0.352 10.376C2.48533 10.4613 5.344 10.5467 8.928 10.632C12.5973 10.7173 16.224 10.76 19.808 10.76C23.904 10.76 27.872 10.7173 31.712 10.632C35.552 10.5467 38.2827 10.504 39.904 10.504C47.84 10.504 54.4107 11.4 59.616 13.192C64.9067 14.8987 68.832 17.416 71.392 20.744C74.0373 24.072 75.36 28.0827 75.36 32.776C75.36 35.6773 74.7627 38.6213 73.568 41.608C72.3733 44.5093 70.3253 47.24 67.424 49.8C64.608 52.2747 60.7253 54.28 55.776 55.816C50.8267 57.2667 44.5973 57.992 37.088 57.992H24.8V55.432H35.808C40.8427 55.432 44.64 54.4933 47.2 52.616C49.8453 50.6533 51.6373 48.0933 52.576 44.936C53.6 41.6933 54.112 38.1093 54.112 34.184C54.112 27.4427 52.9173 22.2373 50.528 18.568C48.1387 14.8133 44.0427 12.936 38.24 12.936C34.912 12.936 32.736 13.6613 31.712 15.112C30.7733 16.5627 30.304 19.5067 30.304 23.944V87.432C30.304 90.504 30.5173 92.808 30.944 94.344C31.456 95.88 32.3947 96.904 33.76 97.416C35.1253 97.928 37.1733 98.2693 39.904 98.44V101C37.6 100.829 34.6987 100.744 31.2 100.744C27.7013 100.659 24.16 100.616 20.576 100.616C16.48 100.616 12.5973 100.659 8.928 100.744C5.344 100.744 2.48533 100.829 0.352 101V98.44C3.08267 98.2693 5.13067 97.928 6.496 97.416C7.86133 96.904 8.75733 95.88 9.184 94.344C9.696 92.808 9.952 90.504 9.952 87.432V23.944C9.952 20.7867 9.696 18.4827 9.184 17.032C8.75733 15.496 7.81867 14.472 6.368 13.96C5.00267 13.3627 2.99733 13.0213 0.352 12.936V10.376ZM24.544 55.816C28.2133 55.9013 31.3707 56.072 34.016 56.328C36.7467 56.584 39.136 56.84 41.184 57.096C43.232 57.2667 45.0667 57.3947 46.688 57.48C54.4533 58.1627 60.1707 59.8267 63.84 62.472C67.5947 65.1173 70.0267 69.0853 71.136 74.376L74.08 87.56C74.848 90.9733 75.6587 93.3627 76.512 94.728C77.3653 96.0933 78.6027 96.776 80.224 96.776C81.3333 96.6907 82.2293 96.4347 82.912 96.008C83.68 95.496 84.4907 94.7707 85.344 93.832L87.136 95.368C84.832 98.0133 82.3573 99.8907 79.712 101C77.0667 102.195 73.8667 102.792 70.112 102.792C65.504 102.792 61.7067 101.811 58.72 99.848C55.7333 97.8853 53.7707 94.2587 52.832 88.968L50.528 76.168C49.9307 72.584 49.2053 69.4693 48.352 66.824C47.4987 64.0933 46.304 61.96 44.768 60.424C43.3173 58.8027 41.2693 57.992 38.624 57.992H24.8L24.544 55.816ZM120.721 33.032C128.23 33.032 134.118 35.2507 138.385 39.688C142.652 44.1253 144.785 51.3787 144.785 61.448H102.673L102.417 59.016H128.657C128.742 54.8347 128.486 50.9947 127.889 47.496C127.292 43.912 126.353 41.0533 125.073 38.92C123.793 36.7867 122.086 35.72 119.953 35.72C116.966 35.72 114.406 37.5973 112.273 41.352C110.225 45.1067 108.988 51.336 108.561 60.04L108.945 60.808C108.86 61.832 108.774 62.8987 108.689 64.008C108.689 65.1173 108.689 66.2693 108.689 67.464C108.689 73.352 109.5 78.1307 111.121 81.8C112.828 85.4693 114.961 88.1573 117.521 89.864C120.081 91.4853 122.684 92.296 125.329 92.296C127.121 92.296 128.956 92.04 130.833 91.528C132.796 90.9307 134.758 89.9067 136.721 88.456C138.684 86.92 140.518 84.7867 142.225 82.056L144.529 82.824C143.505 86.0667 141.884 89.224 139.665 92.296C137.446 95.368 134.63 97.8853 131.217 99.848C127.804 101.811 123.708 102.792 118.929 102.792C113.126 102.792 108.006 101.555 103.569 99.08C99.1317 96.6053 95.633 92.8507 93.073 87.816C90.5983 82.7813 89.361 76.3813 89.361 68.616C89.361 60.68 90.6837 54.0667 93.329 48.776C96.0597 43.4853 99.7717 39.56 104.465 37C109.244 34.3547 114.662 33.032 120.721 33.032ZM152.102 10.376C154.235 10.4613 157.094 10.5467 160.678 10.632C164.347 10.7173 167.974 10.76 171.558 10.76C175.654 10.76 179.622 10.7173 183.462 10.632C187.302 10.5467 190.033 10.504 191.654 10.504C199.59 10.504 206.161 11.4 211.366 13.192C216.657 14.8987 220.582 17.416 223.142 20.744C225.787 24.072 227.11 28.0827 227.11 32.776C227.11 35.6773 226.513 38.6213 225.318 41.608C224.123 44.5093 222.075 47.24 219.174 49.8C216.358 52.2747 212.475 54.28 207.526 55.816C202.577 57.2667 196.347 57.992 188.838 57.992H176.55V55.432H187.558C192.593 55.432 196.39 54.4933 198.95 52.616C201.595 50.6533 203.387 48.0933 204.326 44.936C205.35 41.6933 205.862 38.1093 205.862 34.184C205.862 27.4427 204.667 22.2373 202.278 18.568C199.889 14.8133 195.793 12.936 189.99 12.936C186.662 12.936 184.486 13.6613 183.462 15.112C182.523 16.5627 182.054 19.5067 182.054 23.944V87.432C182.054 90.504 182.267 92.808 182.694 94.344C183.206 95.88 184.145 96.904 185.51 97.416C186.875 97.928 188.923 98.2693 191.654 98.44V101C189.35 100.829 186.449 100.744 182.95 100.744C179.451 100.659 175.91 100.616 172.326 100.616C168.23 100.616 164.347 100.659 160.678 100.744C157.094 100.744 154.235 100.829 152.102 101V98.44C154.833 98.2693 156.881 97.928 158.246 97.416C159.611 96.904 160.507 95.88 160.934 94.344C161.446 92.808 161.702 90.504 161.702 87.432V23.944C161.702 20.7867 161.446 18.4827 160.934 17.032C160.507 15.496 159.569 14.472 158.118 13.96C156.753 13.3627 154.747 13.0213 152.102 12.936V10.376ZM176.294 55.816C179.963 55.9013 183.121 56.072 185.766 56.328C188.497 56.584 190.886 56.84 192.934 57.096C194.982 57.2667 196.817 57.3947 198.438 57.48C206.203 58.1627 211.921 59.8267 215.59 62.472C219.345 65.1173 221.777 69.0853 222.886 74.376L225.83 87.56C226.598 90.9733 227.409 93.3627 228.262 94.728C229.115 96.0933 230.353 96.776 231.974 96.776C233.083 96.6907 233.979 96.4347 234.662 96.008C235.43 95.496 236.241 94.7707 237.094 93.832L238.886 95.368C236.582 98.0133 234.107 99.8907 231.462 101C228.817 102.195 225.617 102.792 221.862 102.792C217.254 102.792 213.457 101.811 210.47 99.848C207.483 97.8853 205.521 94.2587 204.582 88.968L202.278 76.168C201.681 72.584 200.955 69.4693 200.102 66.824C199.249 64.0933 198.054 61.96 196.518 60.424C195.067 58.8027 193.019 57.992 190.374 57.992H176.55L176.294 55.816ZM272.471 33.032C279.98 33.032 285.868 35.2507 290.135 39.688C294.402 44.1253 296.535 51.3787 296.535 61.448H254.423L254.167 59.016H280.407C280.492 54.8347 280.236 50.9947 279.639 47.496C279.042 43.912 278.103 41.0533 276.823 38.92C275.543 36.7867 273.836 35.72 271.703 35.72C268.716 35.72 266.156 37.5973 264.023 41.352C261.975 45.1067 260.738 51.336 260.311 60.04L260.695 60.808C260.61 61.832 260.524 62.8987 260.439 64.008C260.439 65.1173 260.439 66.2693 260.439 67.464C260.439 73.352 261.25 78.1307 262.871 81.8C264.578 85.4693 266.711 88.1573 269.271 89.864C271.831 91.4853 274.434 92.296 277.079 92.296C278.871 92.296 280.706 92.04 282.583 91.528C284.546 90.9307 286.508 89.9067 288.471 88.456C290.434 86.92 292.268 84.7867 293.975 82.056L296.279 82.824C295.255 86.0667 293.634 89.224 291.415 92.296C289.196 95.368 286.38 97.8853 282.967 99.848C279.554 101.811 275.458 102.792 270.679 102.792C264.876 102.792 259.756 101.555 255.319 99.08C250.882 96.6053 247.383 92.8507 244.823 87.816C242.348 82.7813 241.111 76.3813 241.111 68.616C241.111 60.68 242.434 54.0667 245.079 48.776C247.81 43.4853 251.522 39.56 256.215 37C260.994 34.3547 266.412 33.032 272.471 33.032ZM321.611 101.896C317.771 101.896 314.571 101.171 312.011 99.72C309.451 98.2693 307.574 96.3493 306.379 93.96C305.184 91.4853 304.587 88.7973 304.587 85.896C304.587 82.2267 305.398 79.24 307.019 76.936C308.726 74.632 310.902 72.7547 313.547 71.304C316.192 69.8533 318.966 68.6587 321.867 67.72C324.854 66.7813 327.67 65.8853 330.315 65.032C333.046 64.0933 335.222 63.0267 336.843 61.832C338.55 60.552 339.403 58.9307 339.403 56.968V46.984C339.403 44.7653 339.019 42.8027 338.251 41.096C337.568 39.304 336.459 37.9387 334.923 37C333.472 36.0613 331.552 35.592 329.163 35.592C327.456 35.592 325.75 35.848 324.043 36.36C322.336 36.7867 320.928 37.5547 319.819 38.664C322.208 39.5173 324.043 40.84 325.323 42.632C326.688 44.3387 327.371 46.3013 327.371 48.52C327.371 51.4213 326.347 53.7253 324.299 55.432C322.336 57.1387 319.99 57.992 317.259 57.992C314.187 57.992 311.84 57.0533 310.219 55.176C308.683 53.2133 307.915 50.8667 307.915 48.136C307.915 45.6613 308.512 43.6133 309.707 41.992C310.987 40.3707 312.736 38.8347 314.955 37.384C317.344 36.0187 320.203 34.952 323.531 34.184C326.944 33.416 330.614 33.032 334.539 33.032C338.464 33.032 342.006 33.4587 345.163 34.312C348.32 35.08 350.966 36.5307 353.099 38.664C355.062 40.6267 356.342 43.0587 356.939 45.96C357.536 48.776 357.835 52.36 357.835 56.712V91.528C357.835 93.6613 358.048 95.1547 358.475 96.008C358.902 96.776 359.627 97.16 360.651 97.16C361.419 97.16 362.144 96.9467 362.827 96.52C363.595 96.0933 364.406 95.5813 365.259 94.984L366.539 97.16C364.747 98.696 362.656 99.8907 360.267 100.744C357.963 101.512 355.36 101.896 352.459 101.896C349.302 101.896 346.784 101.469 344.907 100.616C343.03 99.6773 341.664 98.44 340.811 96.904C340.043 95.368 339.659 93.576 339.659 91.528C337.611 94.7707 335.136 97.3307 332.235 99.208C329.334 101 325.792 101.896 321.611 101.896ZM330.699 93.704C332.406 93.704 333.942 93.32 335.307 92.552C336.758 91.6987 338.123 90.3333 339.403 88.456V62.216C338.635 63.496 337.568 64.648 336.203 65.672C334.838 66.696 333.387 67.7627 331.851 68.872C330.315 69.896 328.822 71.048 327.371 72.328C326.006 73.608 324.896 75.1867 324.043 77.064C323.19 78.9413 322.763 81.2027 322.763 83.848C322.763 87.176 323.488 89.6507 324.939 91.272C326.39 92.8933 328.31 93.704 330.699 93.704ZM433.173 0.775993V86.92C433.173 90.76 433.77 93.6187 434.965 95.496C436.16 97.288 438.293 98.184 441.365 98.184V100.872C438.72 100.616 436.074 100.488 433.429 100.488C429.845 100.488 426.474 100.616 423.317 100.872C420.245 101.128 417.386 101.597 414.741 102.28V16.136C414.741 12.296 414.144 9.48 412.949 7.688C411.84 5.81066 409.706 4.87199 406.549 4.87199V2.184C409.28 2.43999 411.925 2.56799 414.485 2.56799C417.984 2.56799 421.312 2.43999 424.469 2.184C427.626 1.84266 430.528 1.37333 433.173 0.775993ZM400.533 33.032C404.288 33.032 407.573 33.672 410.389 34.952C413.29 36.1467 415.552 38.1947 417.173 41.096L415.637 42.504C414.528 40.456 413.034 39.0053 411.157 38.152C409.365 37.2133 407.445 36.744 405.397 36.744C401.045 36.744 397.589 39.304 395.029 44.424C392.469 49.4587 391.232 57.2667 391.317 67.848C391.317 75.1013 391.786 80.904 392.725 85.256C393.749 89.5227 395.157 92.5947 396.949 94.472C398.826 96.3493 400.96 97.288 403.349 97.288C406.25 97.288 408.853 96.136 411.157 93.832C413.461 91.528 414.698 88.4133 414.869 84.488L415.509 88.968C414.229 93.4907 412.138 96.9467 409.237 99.336C406.421 101.64 402.709 102.792 398.101 102.792C393.066 102.792 388.544 101.555 384.533 99.08C380.608 96.6053 377.536 92.808 375.317 87.688C373.098 82.4827 371.989 75.784 371.989 67.592C371.989 59.8267 373.226 53.4267 375.701 48.392C378.176 43.272 381.546 39.432 385.813 36.872C390.165 34.312 395.072 33.032 400.533 33.032Z" fill="black"/>
</svg>
